<?xml version="1.0" encoding="UTF-8"?>
<svg id="Layer_1" xmlns="http://www.w3.org/2000/svg" version="1.1" viewBox="0 0 1053.9 196.4">
  <!-- Generator: Adobe Illustrator 30.0.0, SVG Export Plug-In . SVG Version: 2.1.1 Build 123)  -->
  <g>
    <path d="M81,25h-43.9c-4.3,0-8.4,2.2-10.8,5.8L2.2,66.3c-3.5,5.2-2.8,12.1,1.6,16.5l75.6,71.8c6.1,6.2,16.2-.8,12.6-8.7l-31.1-63.9c-1.9-4.2-1.5-9.1,1.2-12.9l24-34.3c2.9-4.1,0-9.8-5.1-9.8Z"/>
    <path d="M123.3,25h43.9c4.3,0,8.4,2.2,10.8,5.8l24,35.6c3.5,5.2,2.8,12.1-1.6,16.5l-75.6,71.8c-6.1,6.2-16.2-.8-12.6-8.7l31.1-63.9c1.9-4.2,1.5-9.1-1.2-12.9l-24-34.3c-2.9-4.1,0-9.8,5.1-9.8Z"/>
  </g>
  <path d="M1013.6,49.2h-5.1v-5.1h15.8v5.1h-5v15.9h-5.7v-15.9ZM1028.1,43.9h5.6l5.7,12.6h.1l5.5-12.6h5.7l3.1,21.1h-5.9l-1.4-12.4h-.1l-5.6,12.4h-2.9l-5.7-12.4h-.1l-1.4,12.3h-5.7l3-21.1Z"/>
  <g>
    <polygon points="401.8 26.5 371.6 93.3 370.9 93.3 341.6 26 302 26 359.6 154.1 382.3 154.1 441.5 26.5 401.8 26.5"/>
    <path d="M512.2,58.3h-.2c-7.3-10-21.5-16.2-36.4-16.2-30.1,0-53,24.6-53,57.4s21.3,57.2,52.8,57.2,28.4-5.3,36.6-15.1h.2v12.9h32.8V44.3h-32.8v14ZM484.1,129.5c-16.8,0-28.2-11.7-28.2-30.1s12.2-29.9,29-29.9,29.3,11.5,29.3,29.5-12,30.6-30.1,30.6Z"/>
    <rect x="556.6" y="1.9" width="32.6" height="152.6"/>
    <rect x="599.6" y="44.3" width="32.6" height="110.4"/>
    <path d="M615.8,0c-10.6,0-18.4,7.5-18.4,18.2s7.1,18.4,18.4,18.4,18.6-7.1,18.6-18.4-7.8-18.2-18.6-18.2Z"/>
    <path d="M716.3,95.5v5.9c0,15.5-6.9,22.8-20.8,22.8s-6.2-.4-8.7-1.3c-6.8-2.4-10.8-8-11.7-16.8-.1-1.3-.2-2.6-.2-4.1v-56.9h-32.6v62.9c0,24.7,11.4,38.5,42.1,39.3l-17.7,40.3c-2.8,6.2,5.1,11.6,9.9,6.8l57-54.1c8.3-8.3,15.3-19,15.3-33v-62.2h-32.6v50.4Z"/>
    <path d="M818.3,42.1c-36.4,0-62.3,23.5-62.3,57s23.9,57.6,61.4,57.6,62.1-23.5,62.1-58.3-25-56.3-61.2-56.3ZM817.8,129.2c-16.6,0-28.8-11.5-28.8-29.5s12-29.3,28.8-29.3,28.6,11.3,28.6,29-12.2,29.7-28.6,29.7Z"/>
    <path d="M961.4,44.3v61.8c0,15.5-6.9,22.8-20.8,22.8s-20.6-7.3-20.6-22.2v-62.5h-32.6v68.5c0,27.7,20,43.9,52.1,43.9s54.5-16.8,54.5-44.6V44.3h-32.6Z"/>
  </g>
</svg>